<svg width="203" height="38" viewBox="0 0 203 38" fill="none" xmlns="http://www.w3.org/2000/svg">
<path d="M202.978 29.8817C202.822 30.6849 202.526 31.4238 202.125 32.0985C201.186 33.6566 199.706 34.8935 197.705 35.7609C195.912 36.548 193.754 36.9496 191.283 36.9496H191.248C187.28 36.9175 184.182 35.8412 182.059 33.753C181.781 33.4799 181.502 33.1747 181.259 32.8695C180.98 33.7209 180.51 34.3313 180.092 34.7329C179.362 35.4557 178.439 36.0019 177.378 36.3392C176.56 36.6123 175.672 36.7729 174.732 36.8372C173.984 36.8854 173.305 36.9175 172.679 36.9175C172.052 36.9175 171.321 36.8854 170.608 36.805C169.668 36.7087 168.798 36.4998 168.014 36.1946C167.075 35.8091 166.274 35.279 165.63 34.5722C165.578 34.6365 165.508 34.6847 165.456 34.7489C164.708 35.4557 163.803 35.9858 162.759 36.3231C161.923 36.5962 161.036 36.7568 160.113 36.8211C159.365 36.8693 158.686 36.9014 158.06 36.9014C157.433 36.9014 156.65 36.8532 155.919 36.7729C155.014 36.6605 154.161 36.4516 153.413 36.1464C152.456 35.7609 151.655 35.2148 151.011 34.508C150.35 35.1826 149.654 35.6967 149.01 35.9697C147.844 36.4677 146.504 36.7408 145.024 36.789C144.05 36.8211 142.918 36.8532 141.456 36.8693C141.021 36.8693 140.586 36.8854 140.151 36.8854C139.716 36.8854 139.264 36.8854 138.829 36.8693C138.219 36.8532 137.506 36.8211 136.862 36.805C136.305 36.7729 135.748 36.7247 135.191 36.6123H135.174C135.052 36.5802 134.895 36.5641 134.739 36.532C133.816 36.3713 132.981 36.0983 132.233 35.7127C132.059 35.6163 131.867 35.52 131.71 35.4075C131.449 35.6324 131.171 35.8252 130.875 36.0179C130.127 36.4838 129.291 36.8211 128.352 37.0139C127.551 37.1906 126.716 37.2709 125.863 37.2709C124.331 37.2709 123.009 36.9978 121.93 36.4356C121.79 36.3713 121.651 36.291 121.529 36.2107C121.181 36.3874 120.816 36.548 120.45 36.6765C119.319 37.0781 118.049 37.2709 116.656 37.2709C115.264 37.2709 113.646 37.046 112.445 36.6123C111.366 36.2107 110.408 35.6806 109.625 35.022C109.051 35.4878 108.372 35.8573 107.624 36.1304C106.823 36.4195 105.936 36.6123 105.031 36.7087C104.3 36.7729 103.604 36.8211 102.977 36.8211C102.351 36.8211 101.654 36.789 100.958 36.7087C100.053 36.6123 99.2006 36.4035 98.4174 36.0822C98.0867 35.9537 97.7735 35.793 97.4776 35.6003C97.1121 35.8091 96.7292 35.9858 96.3115 36.1304C95.511 36.4195 94.6234 36.6123 93.7184 36.7087C92.9875 36.7729 92.2913 36.8211 91.6648 36.8211C91.0382 36.8211 90.3421 36.789 89.646 36.7087C88.741 36.6123 87.8882 36.4035 87.105 36.0822C86.7744 35.9537 86.4611 35.793 86.1653 35.6003C85.7998 35.8091 85.4169 35.9858 84.9992 36.1304C84.1986 36.4195 83.3111 36.6123 82.4061 36.7087C81.6751 36.7729 80.979 36.8211 80.3525 36.8211C79.7259 36.8211 79.0298 36.789 78.3336 36.7087C77.4286 36.6123 76.5759 36.4035 75.7927 36.0822C75.3228 35.8894 74.9051 35.6645 74.5048 35.3754C73.9479 35.7609 73.304 36.0661 72.6078 36.291C71.7725 36.5641 70.8849 36.7247 69.9625 36.789C69.2141 36.8372 68.5354 36.8693 67.9089 36.8693C67.2823 36.8693 66.4992 36.8211 65.7682 36.7408C64.8632 36.6283 64.0105 36.4195 63.2621 36.1143C62.6356 35.8573 62.0787 35.536 61.574 35.1505C60.9474 35.6485 60.1991 36.034 59.3811 36.291C58.5631 36.5641 57.6756 36.7247 56.7358 36.789C56.0222 36.8372 55.3261 36.8693 54.6821 36.8693C54.0382 36.8693 53.3072 36.8372 52.6111 36.7568C51.6887 36.6605 50.8011 36.4516 50.0006 36.1143C49.7047 35.9858 49.4088 35.8412 49.1304 35.6967C48.6779 35.9537 48.1906 36.1625 47.6685 36.3392C46.8331 36.5962 45.9455 36.7729 45.0231 36.8372C44.3096 36.8854 43.6308 36.9175 43.0043 36.9175C42.3778 36.9175 41.6816 36.8854 40.9855 36.805C40.0805 36.7087 39.2277 36.5159 38.4446 36.2107C37.7658 35.9537 37.1567 35.6003 36.6346 35.1666C36.1473 35.5039 35.6078 35.777 34.9986 36.0019C33.2757 36.6283 31.1699 36.9175 28.5593 36.9175C25.9488 36.9175 26.2272 36.8693 25.2178 36.7568C23.9474 36.6283 22.8683 36.3553 21.8937 35.9537C20.9887 35.5682 20.2056 35.0541 19.5617 34.4277C18.9351 35.0541 18.152 35.5521 17.1948 35.9216C15.4718 36.5962 13.3138 36.9175 10.651 36.9175C7.98825 36.9175 8.38854 36.8693 7.37913 36.7568C6.16088 36.6283 5.04705 36.3553 4.08985 35.9697C2.95861 35.5039 2.01882 34.8453 1.28787 33.9939C0.452494 32.998 0 31.7611 0 30.3797C0 28.9982 0.104422 28.2593 0.295861 27.4883C0.504705 26.669 0.800566 25.9301 1.20085 25.2876C1.53152 24.7575 1.89699 24.2435 2.33208 23.7294C2.48872 23.5367 2.76717 23.1993 3.11525 22.6532L3.18486 22.5568C3.18486 22.5568 3.18486 22.5247 3.21967 22.5086C3.53293 22.0267 3.8636 21.4002 4.21167 20.6774L4.26388 20.581C4.43792 20.2115 4.62936 19.7296 4.8382 19.1514C5.02964 18.6213 5.22108 18.0109 5.42993 17.3201C5.56915 16.8222 5.70838 16.3724 5.84761 15.9226C6.2653 14.4448 6.56116 13.224 6.71779 12.2762C6.77 11.9871 6.80481 11.6658 6.85702 11.3767C7.15288 9.22418 8.09268 7.18412 9.60679 5.49747C10.1811 4.83887 11.1035 3.82687 12.0955 2.79882C13.7314 1.09609 16.1854 0.0680371 18.7611 0.0359103C21.3542 0.00378346 23.8429 0.999714 25.6007 2.75063C26.0184 3.16827 26.4709 3.63411 26.9582 4.16421C28.5941 5.94724 29.969 7.92304 31.0306 10.0434C31.7094 11.3927 32.2663 12.8384 32.684 14.3002C32.8232 14.7982 32.9624 15.3122 33.1539 15.9066C33.5367 17.1595 33.9022 18.2357 34.2503 19.1192C34.1981 17.031 35.3467 15.778 36.1125 15.1676C37.1741 14.3323 38.6012 13.7541 40.4982 13.3685C41.1421 13.224 41.7687 13.1276 42.343 13.0633C42.8825 13.0151 43.3524 12.9991 43.7875 12.9991C44.9883 12.9991 46.0151 13.1758 46.8505 13.5292C47.0768 13.4167 47.303 13.3203 47.5293 13.24C48.9215 12.6939 50.4008 12.4208 51.9498 12.4208C53.4987 12.4208 55.7612 12.7903 57.1186 13.5613C58.5109 14.3484 59.5377 15.4246 60.1991 16.774C60.2513 16.9025 60.3209 17.031 60.3731 17.1595C60.4775 17.0631 60.582 16.9667 60.7038 16.8704C60.756 16.8222 60.8082 16.79 60.843 16.7579C59.938 15.6656 59.4507 14.3805 59.4507 12.9669C59.4507 11.5534 60.1817 9.64182 61.5566 8.42101C62.4964 7.58571 64.1845 6.58978 66.8646 6.58978C69.5448 6.58978 71.32 7.58571 72.2772 8.42101C73.7043 9.67395 74.4526 11.2482 74.4526 13.0151C74.4526 14.7821 74.383 14.1075 74.2264 14.6375C74.3656 14.5412 74.5048 14.4448 74.6441 14.3484C75.8101 13.6416 77.3764 13.1276 79.5693 12.7581C80.2654 12.6296 80.9616 12.5493 81.6577 12.5493C83.0848 12.5493 84.1116 12.9188 84.8078 13.3525C85.3299 13.1758 85.8868 13.0312 86.5307 12.9027C87.3661 12.7421 88.3233 12.6457 89.4197 12.6457C90.5162 12.6457 90.4465 12.6457 90.9686 12.6939C91.6474 12.726 92.3261 12.8224 92.9875 12.983C93.527 13.1115 94.0317 13.2882 94.5364 13.5131C94.8148 12.7742 95.1281 12.1477 95.4762 11.6337C96.0679 10.7502 97.0425 10.1398 98.1389 9.96309C99.2354 9.77033 100.384 10.0273 101.272 10.6538C101.498 10.8145 101.724 10.9912 101.933 11.1839C102.107 11.0554 102.281 10.943 102.455 10.8466C103.395 10.2844 104.543 10.1077 105.64 10.3647C106.719 10.6217 107.641 11.2964 108.163 12.212C108.668 13.1115 109.051 14.2841 109.312 15.7459C109.643 15.4086 110.008 15.0873 110.408 14.7982C111.244 14.2038 112.218 13.7059 113.315 13.3203C114.307 12.9669 115.421 12.7099 116.604 12.5332C117.753 12.3565 118.971 12.2762 120.242 12.2762C121.512 12.2762 120.781 12.2762 121.025 12.3083C121.077 12.3083 121.146 12.3083 121.216 12.3083H121.338C123.078 12.3726 124.54 12.5975 125.758 12.983C127.342 13.481 128.595 14.3484 129.518 15.5371C129.796 15.9065 130.057 16.3242 130.266 16.7579V13.6737C130.283 13.6416 130.283 13.6255 130.283 13.5934C130.283 13.5774 130.266 13.5613 130.249 13.5452V13.497C130.231 13.497 130.231 13.497 130.214 13.497C129.883 12.983 129.239 11.8746 128.943 10.5414C128.63 9.03141 128.856 7.58571 129.587 6.36489L129.639 6.28457C129.692 6.22032 129.761 6.09181 129.848 5.96331C130.614 4.90312 131.763 4.18027 133.103 3.93932C133.346 3.89113 133.59 3.859 133.869 3.84294H134.112C134.13 3.84294 134.164 3.84294 134.182 3.84294C134.565 3.84294 134.93 3.859 135.296 3.92325C135.974 4.0357 136.566 4.18027 137.106 4.38909C137.245 4.43728 137.384 4.50154 137.523 4.56579C138.968 3.87506 140.604 3.69837 142.205 4.11601C142.292 4.13208 142.361 4.14814 142.449 4.18027C142.762 4.26059 143.058 4.37303 143.354 4.50154L144.363 4.87099L144.624 5.36896C144.815 5.54566 144.989 5.75448 145.163 5.96331C145.268 6.09181 145.338 6.20426 145.355 6.25245C145.651 6.75041 145.877 7.28051 146.016 7.89091C146.051 8.03549 146.086 8.19612 146.103 8.34069C146.277 9.32056 146.19 10.3165 145.877 11.3124C145.79 11.5694 145.703 11.7943 145.616 12.0031V12.0513L145.459 12.3244C145.355 12.5172 145.268 12.6778 145.198 12.8063C145.181 12.8384 145.163 12.8706 145.146 12.9188L144.92 13.3364C144.885 13.4007 144.85 13.4649 144.815 13.5292V13.5613C144.711 13.7219 144.624 13.8826 144.467 14.1074C144.05 14.766 143.789 15.2319 143.684 15.4889C143.667 15.9547 143.632 16.9989 143.597 17.9627V23.3278C143.702 23.2475 143.806 23.1833 143.91 23.119C144.85 22.5086 146.016 22.1873 147.374 22.1873C148.731 22.1873 147.844 22.1873 148.07 22.2195H148.105C148.296 22.2355 148.505 22.2677 148.731 22.2998C148.836 22.2998 148.94 22.3319 149.062 22.348C149.062 22.2837 149.027 22.2195 149.027 22.1713C148.609 20.1634 149.236 18.3161 150.837 16.9828C150.889 16.9346 150.941 16.9025 150.976 16.8704C150.071 15.7941 149.584 14.493 149.584 13.0794C149.584 11.6658 150.315 9.75427 151.69 8.53345C152.63 7.69815 154.318 6.70222 156.998 6.70222C159.678 6.70222 161.453 7.69815 162.41 8.53345C163.263 9.27237 163.872 10.1398 164.22 11.0875C164.325 10.7823 164.447 10.4771 164.586 10.188C165.108 9.17599 165.856 8.27644 166.814 7.53752C167.719 6.83073 168.798 6.26851 169.998 5.88299C171.164 5.51353 172.418 5.32077 173.723 5.32077C175.028 5.32077 176.055 5.43321 177.116 5.67416C178.248 5.93118 179.257 6.30064 180.127 6.78254C181.137 7.34476 181.955 8.05155 182.546 8.88684C183.225 9.86671 183.573 10.9269 183.573 12.0513C183.573 13.1758 182.964 14.7982 181.85 15.778C182.094 16.1475 182.268 16.5652 182.407 17.031C182.477 16.9667 182.546 16.9025 182.633 16.8222C183.852 15.7299 185.331 14.8785 187.037 14.3002C188.655 13.7541 190.465 13.4649 192.397 13.4649C194.329 13.4649 195.686 13.7541 197.044 14.3163C198.436 14.8946 199.602 15.6977 200.472 16.6776C201.395 17.7057 201.986 18.8943 202.247 20.2115C202.508 21.5287 202.387 22.862 201.882 24.1631C201.777 24.4523 201.638 24.7414 201.499 24.9984C202.178 25.7052 202.63 26.5405 202.856 27.4722C203.048 28.2754 203.048 29.1428 202.856 30.0102" fill="#0E503A"/>
<path d="M106.08 17.4733C106.133 18.5474 106.716 18.8697 106.592 20.0665C106.362 22.2147 105.284 22.184 106.415 26.6338C106.539 27.1555 106.857 27.5391 107.105 27.8767C107.352 28.2142 107.582 28.5365 107.794 28.8587C108.006 29.1809 108.112 29.6566 108.112 30.2703C108.112 30.8841 107.936 31.3137 107.582 31.6667C107.229 32.0196 106.769 32.2958 106.239 32.4799C105.691 32.664 105.107 32.7868 104.471 32.8482C103.835 32.9095 103.251 32.9402 102.721 32.9402C102.191 32.9402 101.643 32.9095 101.059 32.8482C100.476 32.7868 99.9457 32.664 99.4685 32.4799C98.9912 32.2958 98.6023 32.0196 98.3018 31.6667C98.0013 31.3137 97.8422 30.8534 97.8422 30.2703C97.8422 29.6873 97.9483 29.1809 98.1427 28.8587C98.3372 28.5365 98.567 28.2142 98.8144 27.8767C99.0619 27.5391 99.2917 27.1248 99.4861 26.6338C99.6806 26.1428 99.7867 25.4062 99.7867 24.4549V23.8412C99.7867 23.5036 99.7513 23.1353 99.6629 22.7671C99.5922 22.3988 99.4508 22.0612 99.274 21.7543C99.0973 21.4475 98.8321 21.1866 98.5139 21.0025C98.1957 20.803 97.8069 20.7109 97.3296 20.7109C96.8523 20.7109 96.4458 20.803 96.0922 21.0025C95.7564 21.202 95.4558 21.4475 95.2437 21.7543C95.0139 22.0612 94.8548 22.3988 94.7488 22.7671C94.6427 23.1353 94.5897 23.4882 94.5897 23.8412V24.4549C94.5897 25.4216 94.6957 26.1428 94.9079 26.6338C95.12 27.1248 95.3498 27.5391 95.5973 27.8767C95.8447 28.2142 96.0745 28.5365 96.2867 28.8587C96.4988 29.1809 96.6048 29.6566 96.6048 30.2703C96.6048 30.8841 96.4281 31.3137 96.0745 31.6667C95.721 32.0196 95.2614 32.2958 94.7311 32.4799C94.1831 32.664 93.5998 32.7868 92.9634 32.8482C92.3271 32.9095 91.7437 32.9402 91.2134 32.9402C90.6831 32.9402 90.1351 32.9095 89.5518 32.8482C88.9685 32.7868 88.4382 32.664 87.9609 32.4799C87.4836 32.2958 87.0947 32.0196 86.7942 31.6667C86.4937 31.3137 86.3346 30.8534 86.3346 30.2703C86.3346 29.6873 86.4407 29.1809 86.6351 28.8587C86.8296 28.5365 87.0594 28.2142 87.3069 27.8767C87.5543 27.5391 87.7841 27.1248 87.9786 26.6338C88.173 26.1428 88.2791 25.4062 88.2791 24.4549V23.8412C88.2791 23.5036 88.2437 23.1353 88.1553 22.7671C88.067 22.3988 87.9432 22.0612 87.7311 21.7543C87.5367 21.4475 87.2715 21.1866 86.9533 21.0025C86.6351 20.803 86.2286 20.7109 85.716 20.7109C85.2033 20.7109 84.8321 20.803 84.5139 20.9871C84.1781 21.1713 83.9129 21.4168 83.7008 21.7083C83.4887 21.9999 83.3296 22.3528 83.2235 22.721C83.1175 23.1046 83.0644 23.4729 83.0644 23.8412V24.4549C83.0644 25.4216 83.1705 26.1428 83.3826 26.6338C83.5947 27.1248 83.8245 27.5391 84.072 27.8767C84.3195 28.2142 84.5493 28.5365 84.7614 28.8587C84.9735 29.1809 85.0796 29.6566 85.0796 30.2703C85.0796 30.8841 84.9028 31.3137 84.5493 31.6667C84.1957 32.0196 83.7362 32.2958 83.2058 32.4799C82.6579 32.664 82.0745 32.7868 81.4382 32.8482C80.8018 32.9095 80.2185 32.9402 79.6882 32.9402C79.1579 32.9402 78.6099 32.9095 78.0266 32.8482C77.4432 32.7868 76.9129 32.664 76.4356 32.4799C75.9584 32.2958 75.5695 32.0196 75.269 31.6667C74.9685 31.3137 74.8094 30.8534 74.8094 30.2703C74.8094 29.6873 74.9154 29.1809 75.1099 28.8587C75.3043 28.5365 75.5341 28.2142 75.7816 27.8767C76.0291 27.5391 76.2589 27.1248 76.4533 26.6338C76.6478 26.1428 76.7538 25.4062 76.7538 24.4549V23.8412C76.7538 23.1507 76.6478 22.5829 76.418 22.1226C76.1882 21.6623 75.9584 21.2633 75.7109 20.8951C75.4634 20.5422 75.216 20.2046 75.0038 19.8824C74.774 19.5601 74.668 19.1919 74.668 18.7776C74.668 17.8876 75.0569 17.2125 75.8346 16.7675C76.6124 16.3225 77.8851 15.9543 79.6175 15.6781C80.1124 15.586 80.6074 15.54 81.0846 15.54C81.7917 15.54 82.3043 15.6781 82.6048 15.9543C82.9053 16.2305 83.1528 16.6294 83.3473 17.1665C83.5594 17.0284 83.8069 16.8749 84.1074 16.7061C84.3902 16.5373 84.7614 16.3686 85.2033 16.2305C85.6452 16.077 86.1579 15.9543 86.7766 15.8315C87.3776 15.7241 88.12 15.6627 89.0038 15.6627C89.8877 15.6627 89.923 15.6627 90.4003 15.6934C90.8776 15.7241 91.3372 15.7855 91.8144 15.8775C92.274 15.985 92.6983 16.1384 93.1048 16.3379C93.4937 16.5373 93.8473 16.8135 94.1301 17.1665C94.3422 17.0284 94.625 16.8749 94.9786 16.7061C95.3321 16.5373 95.774 16.3686 96.2867 16.2305C96.3574 16.2151 96.8877 16.1384 96.9053 16.0617C97.2942 14.5426 97.7362 13.7294 98.0367 13.2997C98.2488 13.0082 98.6907 12.9315 99.0089 13.1463C100.211 13.9442 101.325 15.8622 101.325 15.8622C101.325 15.8622 102.827 14.1744 104.1 13.4532C104.436 13.269 104.878 13.3611 105.054 13.668C105.373 14.205 105.832 15.3098 106.08 17.504V17.6728C106.097 17.6728 106.08 17.504 106.08 17.504V17.4733Z" fill="#F9F4DF"/>
<path d="M150.112 28.7757C149.975 30.1653 148.161 32.0628 147.425 32.3616C146.689 32.6604 145.8 32.8248 144.773 32.8547C143.746 32.8846 142.583 32.9144 141.3 32.9294C140.495 32.9443 139.674 32.9443 138.87 32.9294C138.288 32.9144 137.587 32.8995 136.988 32.8696C136.594 32.8547 136.201 32.8098 135.807 32.7501C135.67 32.7202 135.516 32.7053 135.345 32.6754C134.781 32.5857 134.284 32.4363 133.857 32.2271C133.429 32.018 133.087 31.7341 132.813 31.3605C132.556 30.987 132.419 30.5089 132.419 29.9262C132.419 29.3435 132.471 29.1044 132.556 28.8355C132.556 28.8355 132.556 28.8205 132.556 28.8056C133.206 27.2816 133.583 25.6829 133.583 24.0543C133.617 20.304 133.668 14.1034 133.668 14.1034C133.617 13.1771 133.36 12.9081 133.326 12.8334C133.292 12.7587 133.223 12.6243 133.206 12.6243C133.138 12.5495 132.522 11.7128 132.3 10.6968C132.163 10.0544 132.18 9.36707 132.59 8.7246C132.625 8.66483 132.676 8.60507 132.71 8.5453C132.984 8.18671 133.36 7.96259 133.857 7.87295C133.976 7.858 134.096 7.84306 134.199 7.82812C134.199 7.82812 134.233 7.82812 134.25 7.82812C134.421 7.82812 134.609 7.82812 134.781 7.858C135.157 7.91777 135.533 7.99248 135.876 8.12695C136.423 8.32118 136.885 8.62001 137.279 9.00848C137.347 9.08318 137.398 9.15789 137.467 9.2326C137.467 9.24754 137.501 9.27742 137.518 9.29236C137.518 9.3073 137.57 9.3073 137.587 9.29236C137.587 9.29236 137.587 9.27742 137.604 9.26248C137.604 9.24754 137.638 9.2326 137.655 9.20271C137.655 9.20271 137.672 9.17283 137.689 9.15789C137.689 9.15789 137.706 9.12801 137.724 9.12801C138.151 8.67977 139.469 7.5293 141.334 8.00742C141.385 8.00742 141.419 8.02236 141.471 8.0373C141.608 8.06718 141.745 8.12695 141.847 8.18671C142.035 8.2913 142.206 8.42577 142.326 8.59012C142.343 8.62001 142.378 8.64989 142.395 8.67977C142.532 8.88895 142.617 9.12801 142.686 9.36707C142.686 9.42683 142.72 9.4866 142.72 9.5613V9.59119C142.822 10.1739 142.72 10.7118 142.6 11.1152C142.446 11.5784 142.241 11.8772 142.206 11.9071C142.087 12.1013 141.984 12.2955 141.864 12.5047C141.813 12.5794 141.779 12.6541 141.727 12.7438C141.556 13.0426 140.427 14.5965 140.324 15.4033C140.324 15.5079 140.222 18.0479 140.222 18.0479V23.8302C140.222 23.8302 140.085 26.3104 141.351 26.7736C141.454 26.8035 141.591 26.8334 141.71 26.8483C141.779 26.8483 141.847 26.8483 141.898 26.8483C141.967 26.8483 142.053 26.8483 142.138 26.8483C142.737 26.8483 143.216 26.7587 143.575 26.5644C143.832 26.4299 144.089 26.2805 144.345 26.1162C144.516 26.0116 144.67 25.8921 144.824 25.7725C145.098 25.5634 145.372 25.3691 145.663 25.1898C146.022 24.9657 146.535 24.8462 147.186 24.8462C147.836 24.8462 147.442 24.8462 147.579 24.8462C147.716 24.8462 147.87 24.8761 148.007 24.891C148.469 24.9508 148.845 25.0554 149.136 25.2048C149.427 25.3542 149.667 25.5634 149.821 25.8622C149.975 26.161 150.06 26.5345 150.094 26.9977C150.112 27.4609 150.094 28.0585 150.026 28.7608" fill="#F9F4DF"/>
<path d="M21.7442 15.8046C21.6502 15.2604 21.1019 14.8862 20.7416 14.8012C20.3813 14.6992 20.1306 14.8012 19.8173 14.8012C19.504 14.8012 19.269 14.6992 18.9086 14.8012C18.5483 14.9033 18 15.2604 17.906 15.8046C17.812 16.3489 18.1567 17.0972 18.7207 17.6244C19.2846 18.1346 19.8329 18.2196 19.8329 18.2196C19.8329 18.2196 20.3656 18.1346 20.9452 17.6244C21.5092 17.1142 21.8695 16.3489 21.7599 15.8046" fill="#F9F4DF"/>
<path d="M35.7624 29.6129C35.7624 30.9162 35.1134 31.7902 33.8153 32.2502C32.5172 32.7102 30.7921 32.9402 28.6741 32.9402C26.5562 32.9402 26.6586 32.8942 25.7705 32.8022C24.8652 32.7102 24.1137 32.5416 23.4817 32.2809C22.8497 32.0202 22.3715 31.6829 22.0128 31.2536C21.6541 30.8242 21.4833 30.2876 21.4833 29.6129C21.4833 28.3096 21.5687 27.3589 21.7566 26.7762C21.9445 26.1782 22.1324 25.7489 22.3203 25.4576C22.5081 25.1662 22.6619 24.9056 22.7985 24.6602C22.9351 24.4149 22.9522 24.0009 22.8497 23.4336C22.7814 23.0042 22.7131 22.5596 22.6448 22.0996C22.6106 21.9002 22.7302 21.7162 22.9351 21.6242C23.3792 21.4249 23.755 21.0416 23.977 20.4896C23.977 20.4742 23.9941 20.4282 24.0112 20.3976C24.1478 20.0296 24.2162 19.6156 24.2162 19.1402C24.2162 17.5149 23.7892 15.6442 22.5252 14.4942C21.2613 13.3442 20.8001 12.2709 20.988 10.5075C21.1759 8.74421 17.589 8.74421 17.7769 10.5075C17.9648 12.2709 17.5036 13.3442 16.2397 14.4942C14.9757 15.6442 14.5487 17.5149 14.5487 19.1402C14.5487 20.7656 14.617 20.0296 14.7708 20.3976C14.7878 20.4436 14.8049 20.4742 14.8049 20.4896C15.0782 21.1336 15.5394 21.5629 16.103 21.7162C16.2568 21.7622 16.3592 21.8849 16.3422 22.0229C16.2738 22.4829 16.2055 22.8969 16.1372 23.2956C16.0347 23.9396 16.0859 24.3842 16.2568 24.6449C16.4446 24.9056 16.6838 25.1969 16.9741 25.5036C17.2645 25.8256 17.5378 26.2702 17.794 26.8529C18.0502 27.4356 18.1697 28.3556 18.1697 29.6282C18.1697 30.9009 17.5207 31.7289 16.2397 32.2196C14.9586 32.7102 13.2335 32.9402 11.0814 32.9402C8.92931 32.9402 9.11719 32.8942 8.2461 32.8022C7.375 32.7102 6.60639 32.5416 5.97442 32.2809C5.34245 32.0202 4.83004 31.6829 4.45427 31.2536C4.07851 30.8242 3.89062 30.2876 3.89062 29.6129C3.89062 28.9382 3.95895 28.0336 4.09559 27.5122C4.23223 27.0062 4.42011 26.5462 4.65924 26.1782C4.89836 25.7949 5.17165 25.4269 5.49617 25.0589C5.80362 24.6909 6.1623 24.2309 6.55515 23.6636C6.93092 23.1116 7.32376 22.4062 7.75077 21.5476C7.75077 21.5169 7.78493 21.4862 7.80201 21.4556C8.02405 20.9956 8.26318 20.4589 8.48522 19.8302C8.69019 19.2629 8.91223 18.6342 9.11719 17.9289C9.27091 17.4536 9.40756 17.0089 9.52712 16.5796C9.97121 15.0462 10.2787 13.7889 10.4665 12.7922C10.5178 12.4702 10.569 12.1482 10.6032 11.8569C10.8081 10.3389 11.5084 8.91287 12.5845 7.71687C13.2848 6.9502 14.1046 6.0762 14.9416 5.23287C17.1962 2.9482 21.1417 2.91753 23.4646 5.1562C23.8746 5.55487 24.2845 5.96887 24.6944 6.41354C26.1121 7.9162 27.2906 9.58754 28.2129 11.3662C28.8108 12.5162 29.289 13.7122 29.6477 14.9542C29.8014 15.4755 29.9551 16.0122 30.143 16.5642C30.6896 18.2662 31.202 19.6462 31.6802 20.7349C32.1756 21.8082 32.6197 22.6822 33.0467 23.3722C33.4054 23.9396 33.7128 24.4149 34.0032 24.7982C34.0544 24.8749 34.1056 24.9516 34.174 25.0129C34.4985 25.4269 34.7718 25.8256 35.0109 26.2089C35.25 26.6076 35.4379 27.0522 35.5746 27.5736C35.7112 28.0796 35.7795 28.7696 35.7795 29.6129" fill="#F9F4DF"/>
<path d="M39.7942 22.5471C39.7942 21.8648 39.6828 21.3887 39.4783 21.119C39.2739 20.8651 39.0324 20.6588 38.7722 20.516C38.512 20.3732 38.2519 20.2145 37.9731 20.0241C37.713 19.8337 37.5271 19.4528 37.4157 18.8816C37.1927 17.9295 37.4157 17.2154 38.0846 16.7235C38.7536 16.2316 39.8128 15.8666 41.2437 15.5969C41.8012 15.4858 42.3029 15.4064 42.7489 15.3588C43.1949 15.3271 43.6037 15.3112 43.9568 15.3112C45.0717 15.3112 45.8151 15.4858 46.2053 15.8508C46.5955 16.1999 46.7814 16.5807 46.7814 16.9933C47.4132 16.2633 48.268 15.7079 49.3272 15.3271C50.3864 14.9463 51.5014 14.7559 52.6535 14.7559C53.8056 14.7559 55.4595 14.978 56.3143 15.4382C57.1691 15.8825 57.8009 16.5014 58.2097 17.2789C58.6186 18.0564 58.8416 18.945 58.9159 19.9606C58.9902 20.9762 59.0274 22.0552 59.0274 23.1977V25.2923C59.0274 26.1016 59.1575 26.7046 59.399 27.0854C59.6406 27.4821 59.9194 27.7995 60.2353 28.0692C60.5326 28.3231 60.8113 28.6087 61.0715 28.8944C61.3131 29.18 61.4431 29.6243 61.4431 30.2432C61.4431 30.862 61.2387 31.3539 60.8299 31.703C60.4211 32.0521 59.9194 32.3219 59.3247 32.4964C58.7301 32.671 58.0797 32.7821 57.3921 32.8297C56.7045 32.8773 56.0541 32.909 55.4781 32.909C54.902 32.909 54.2888 32.8773 53.657 32.8138C53.0252 32.7503 52.4491 32.6234 51.9288 32.4171C51.4085 32.2108 50.9625 31.941 50.628 31.5919C50.2935 31.2429 50.1262 30.7985 50.1262 30.2273C50.1262 29.656 50.2377 28.9261 50.4607 28.5929C50.6837 28.2596 50.9253 27.9581 51.1669 27.7043C51.4085 27.4504 51.65 27.133 51.873 26.7839C52.096 26.4348 52.2075 25.8636 52.2075 25.1178V23.0866C52.2075 22.4202 52.0217 21.8489 51.65 21.357C51.2784 20.8651 50.5722 20.6271 49.5502 20.6271C48.5281 20.6271 47.8406 20.8334 47.3203 21.2618C46.7999 21.6902 46.5584 22.2932 46.5584 23.0708V25.1019C46.5584 25.6255 46.6884 26.0381 46.93 26.3713C47.1716 26.6887 47.4503 27.0061 47.7662 27.3393C48.0636 27.6567 48.3423 28.0375 48.6025 28.4818C48.844 28.9261 48.9741 29.5132 48.9741 30.2749C48.9741 31.0366 48.7697 31.3857 48.3609 31.7348C47.9521 32.0839 47.4503 32.3536 46.8371 32.5282C46.2239 32.7027 45.5735 32.8138 44.8859 32.8614C44.1984 32.909 43.5665 32.9407 43.0091 32.9407C42.4516 32.9407 41.8569 32.909 41.2437 32.8455C40.6119 32.7821 40.0358 32.6551 39.5155 32.4647C38.9952 32.2743 38.5492 32.0045 38.1961 31.6713C37.8431 31.3222 37.6758 30.8779 37.6758 30.3066C37.6758 29.7354 37.7873 28.9261 38.0103 28.5294C38.2333 28.1327 38.4749 27.7677 38.7164 27.4504C38.958 27.133 39.1996 26.7839 39.4226 26.4189C39.6456 26.054 39.7571 25.5145 39.7571 24.8004V22.563L39.7942 22.5471Z" fill="#F9F4DF"/>
<path d="M65.4347 24.827C65.4347 24.2529 65.3882 23.803 65.2951 23.5082C65.2021 23.2135 65.078 22.9807 64.9074 22.8256C64.7524 22.6704 64.5818 22.5774 64.3957 22.5153C64.2251 22.4532 64.039 22.3757 63.8529 22.2826C63.6668 22.1895 63.5117 22.0499 63.3722 21.8637C63.2326 21.6775 63.124 21.3827 63.062 20.9949C62.8759 20.064 63.1085 19.3038 63.7598 18.7142C64.4112 18.1247 65.5898 17.6592 67.3111 17.3334C68.1175 17.1938 68.7534 17.1317 69.2186 17.1317C69.932 17.1317 70.4437 17.2869 70.7384 17.5816C71.033 17.8764 71.2191 18.3419 71.2967 18.978C71.3742 19.5985 71.3897 20.4053 71.3277 21.3827C71.2656 22.3602 71.2501 23.5082 71.2812 24.827C71.2812 25.5096 71.3742 26.0526 71.5758 26.4405C71.7774 26.8284 71.979 27.2007 72.1961 27.542C72.4132 27.8834 72.6303 28.2402 72.8164 28.6436C73.018 29.0315 73.1111 29.6055 73.1111 30.3502C73.1111 31.0949 72.9405 31.4362 72.5993 31.7775C72.2581 32.1189 71.8394 32.3826 71.3432 32.5533C70.8469 32.7239 70.3042 32.8325 69.7304 32.8791C69.1566 32.9256 68.6138 32.9411 68.1331 32.9411C67.6523 32.9411 67.1406 32.9101 66.5978 32.8325C66.0705 32.7705 65.5898 32.6308 65.1556 32.4447C64.7213 32.2585 64.3802 31.9947 64.101 31.6689C63.8219 31.3276 63.6823 30.8932 63.6823 30.3347C63.6823 29.5434 63.7754 28.9539 63.9614 28.535C64.1475 28.1316 64.3492 27.7592 64.5508 27.4334C64.7523 27.1076 64.9539 26.7663 65.14 26.394C65.3261 26.0216 65.4192 25.4941 65.4192 24.796L65.4347 24.827ZM63.6203 12.7721C63.6203 11.8878 63.9459 11.1431 64.5973 10.507C65.2486 9.88638 66.1325 9.56057 67.2801 9.56057C68.4277 9.56057 69.3892 9.88638 70.056 10.5225C70.7229 11.1586 71.064 11.9188 71.064 12.8031C71.064 13.6875 70.7229 14.4011 70.056 15.0062C69.3892 15.6268 68.4587 15.9216 67.2801 15.9216C66.1015 15.9216 65.2486 15.6113 64.5973 15.0062C63.9459 14.3856 63.6203 13.6409 63.6203 12.7566" fill="#F9F4DF"/>
<path d="M154.477 24.827C154.477 24.2529 154.424 23.803 154.316 23.5082C154.209 23.2134 154.066 22.9807 153.869 22.8256C153.69 22.6704 153.493 22.5773 153.278 22.5153C153.082 22.4532 152.867 22.3756 152.652 22.2825C152.437 22.1895 152.258 22.0498 152.097 21.8637C151.936 21.6775 151.811 21.3827 151.74 20.9948C151.525 20.064 151.793 19.3037 152.545 18.7142C153.296 18.1246 154.656 17.6592 156.642 17.3334C157.573 17.1937 158.307 17.1317 158.843 17.1317C159.666 17.1317 160.257 17.2868 160.597 17.5816C160.937 17.8764 161.152 18.3418 161.241 18.9779C161.331 19.5985 161.348 20.4053 161.277 21.3827C161.205 22.3601 161.187 23.5082 161.223 24.827C161.223 25.5096 161.331 26.0526 161.563 26.4405C161.796 26.8283 162.028 27.2007 162.279 27.542C162.529 27.8833 162.78 28.2402 162.995 28.6436C163.227 29.0314 163.335 29.6055 163.335 30.3502C163.335 31.0949 163.138 31.4362 162.744 31.7775C162.35 32.1188 161.867 32.3826 161.295 32.5532C160.722 32.7239 160.096 32.8325 159.434 32.879C158.772 32.9256 158.145 32.9411 157.591 32.9411C157.036 32.9411 156.446 32.9101 155.819 32.8325C155.211 32.7704 154.656 32.6308 154.155 32.4446C153.654 32.2585 153.26 31.9947 152.938 31.6689C152.616 31.3276 152.455 30.8932 152.455 30.3346C152.455 29.5434 152.563 28.9538 152.777 28.535C152.992 28.1316 153.225 27.7592 153.457 27.4334C153.69 27.1076 153.923 26.7663 154.137 26.3939C154.352 26.0216 154.459 25.4941 154.459 24.7959L154.477 24.827ZM152.384 12.7721C152.384 11.8877 152.759 11.143 153.511 10.5069C154.263 9.88635 155.283 9.56054 156.607 9.56054C157.931 9.56054 159.04 9.88635 159.81 10.5225C160.579 11.1586 160.973 11.9188 160.973 12.8031C160.973 13.6874 160.579 14.4011 159.81 15.0062C159.04 15.6268 157.967 15.9215 156.607 15.9215C155.247 15.9215 154.263 15.6113 153.511 15.0062C152.759 14.3856 152.384 13.6409 152.384 12.7566" fill="#F9F4DF"/>
<path d="M110.445 27.9784C110.445 26.9459 110.647 26.0212 111.067 25.189C111.486 24.3723 112.057 23.6788 112.779 23.1086C113.501 22.5384 114.375 22.1069 115.382 21.8141C116.389 21.5212 117.464 21.3671 118.623 21.3671C119.781 21.3671 120.067 21.4134 120.52 21.4904C120.99 21.5675 121.41 21.7062 121.78 21.8911C121.88 20.9048 121.679 20.2267 121.192 19.8569C120.705 19.487 120.084 19.3021 119.328 19.3021C118.572 19.3021 118.253 19.3791 117.766 19.5487C117.279 19.7028 116.826 19.8877 116.389 20.1034C115.97 20.3038 115.533 20.5195 115.113 20.7199C114.694 20.9202 114.24 21.0897 113.787 21.1976C113.468 21.2593 113.115 21.2284 112.729 21.0897C112.36 20.951 112.024 20.7199 111.772 20.4117C111.503 20.1034 111.335 19.7336 111.251 19.3021C111.167 18.8706 111.235 18.4237 111.453 17.9305C111.705 17.4065 112.108 16.9442 112.662 16.5435C113.216 16.1582 113.871 15.8192 114.643 15.5572C115.416 15.2952 116.255 15.0949 117.212 14.9562C118.153 14.8175 119.16 14.7559 120.201 14.7559C121.242 14.7559 120.537 14.7559 120.688 14.7713C120.839 14.7713 120.99 14.7867 121.141 14.7867C122.502 14.8329 123.61 14.987 124.5 15.2644C125.373 15.5418 126.061 16.0041 126.548 16.636C127.035 17.2678 127.371 18.1154 127.522 19.1634C127.69 20.2113 127.74 21.5367 127.69 23.124C127.657 24.1873 127.69 25.0195 127.808 25.6514C127.908 26.2678 128.043 26.7764 128.211 27.1308C128.379 27.5007 128.546 27.7781 128.731 27.9784C128.916 28.1788 129.101 28.3483 129.285 28.5178C129.453 28.6719 129.604 28.8723 129.722 29.1034C129.839 29.3346 129.89 29.6736 129.89 30.136C129.89 30.5983 129.772 30.999 129.554 31.3534C129.336 31.6925 129.017 32.0007 128.63 32.2318C128.244 32.4784 127.791 32.6479 127.254 32.7712C126.733 32.8791 126.179 32.9407 125.591 32.9407C124.668 32.9407 123.912 32.802 123.358 32.5092C122.787 32.2164 122.35 31.8312 122.015 31.3226C121.863 31.076 121.763 30.9373 121.729 30.9373C121.696 30.9373 121.544 31.0606 121.293 31.2764C120.638 31.8774 119.949 32.3089 119.227 32.5555C118.505 32.802 117.666 32.9407 116.709 32.9407C115.751 32.9407 114.626 32.802 113.82 32.5092C113.031 32.2164 112.376 31.8466 111.873 31.3688C111.369 30.8911 110.999 30.3671 110.781 29.7815C110.563 29.1959 110.445 28.5949 110.445 27.963M118.505 23.4322C117.431 23.4322 116.641 23.5863 116.138 23.9099C115.634 24.2336 115.382 24.6188 115.382 25.0812C115.382 25.5435 115.634 25.9442 116.138 26.3449C116.641 26.7456 117.431 26.9459 118.505 26.9459C119.58 26.9459 120.335 26.7456 120.738 26.3449C121.158 25.9442 121.36 25.5281 121.36 25.0812C121.36 24.6343 121.141 24.2336 120.722 23.9099C120.302 23.5863 119.546 23.4322 118.505 23.4322Z" fill="#F9F4DF"/>
<path d="M165.686 18.2956C165.686 16.7192 166.197 15.9309 167.2 15.9309C168.203 15.9309 168.896 15.8679 169.115 15.7575C169.333 15.6472 169.352 15.458 169.151 15.2058C168.969 14.9536 168.677 14.6383 168.294 14.2442C167.911 13.8501 167.674 13.3771 167.601 12.8096C167.492 12.1318 167.601 11.4854 167.929 10.8864C168.258 10.2873 168.732 9.75136 169.37 9.2942C169.99 8.83703 170.738 8.47446 171.595 8.22223C172.452 7.97 173.382 7.82812 174.348 7.82812C175.315 7.82812 176.245 7.92271 177.084 8.09611C177.923 8.26952 178.652 8.52175 179.272 8.83703C179.892 9.15232 180.366 9.54643 180.713 9.98783C181.059 10.4292 181.224 10.9179 181.224 11.4381C181.224 11.9584 180.932 12.6362 180.33 13.0461C179.728 13.456 179.053 13.6609 178.287 13.6609C177.522 13.6609 177.157 13.5663 176.847 13.3929C176.555 13.2195 176.3 13.0146 176.081 12.8096C175.88 12.6047 175.68 12.3998 175.479 12.2263C175.297 12.0529 174.968 11.9584 174.494 11.9584C174.02 11.9584 173.601 12.1633 173.546 12.5732C173.491 12.983 173.619 13.4402 173.911 13.9289C174.203 14.4176 174.658 14.8747 175.26 15.2846C175.862 15.6945 176.537 15.8994 177.266 15.8994H177.795C178.78 15.8994 179.436 16.0886 179.765 16.4512C180.093 16.8137 180.257 17.4443 180.257 18.3429C180.257 19.2414 179.29 20.077 177.357 20.077C175.424 20.077 177.029 20.2188 176.956 20.5183C176.883 20.8179 176.829 21.1332 176.829 21.4957C176.829 22.6465 176.883 23.5924 176.993 24.3491C177.102 25.09 177.23 25.7048 177.376 26.2092C177.522 26.6979 177.704 27.092 177.886 27.3916C178.069 27.6911 178.251 27.9748 178.397 28.2428C178.543 28.5108 178.67 28.8103 178.78 29.1099C178.889 29.4094 178.944 29.8193 178.944 30.308C178.944 30.7966 178.762 31.4115 178.379 31.7583C177.996 32.1051 177.522 32.3731 176.92 32.5465C176.336 32.7199 175.698 32.8302 175.023 32.8775C174.348 32.9248 173.71 32.9406 173.145 32.9406C172.58 32.9406 171.978 32.9091 171.339 32.846C170.719 32.7829 170.154 32.6568 169.643 32.4677C169.133 32.2785 168.732 32.0105 168.403 31.6794C168.075 31.3326 167.911 30.8912 167.911 30.3237C167.911 29.7562 167.966 29.3463 168.075 29.031C168.185 28.7158 168.312 28.432 168.458 28.164C168.604 27.9118 168.768 27.628 168.951 27.3443C169.133 27.0605 169.297 26.6822 169.443 26.2092C169.589 25.7363 169.716 25.1215 169.826 24.3648C169.935 23.6081 169.99 22.6465 169.99 21.4642C169.99 20.2819 169.844 20.8179 169.589 20.5026C169.315 20.2031 169.078 20.0454 168.859 20.0454C167.692 20.0454 166.853 19.9035 166.379 19.6355C165.905 19.3676 165.668 18.8946 165.668 18.2325" fill="#F9F4DF"/>
<path d="M181.223 25.1693C181.223 23.8361 181.471 22.6544 181.968 21.5787C182.465 20.5182 183.175 19.594 184.081 18.8365C184.986 18.079 186.087 17.5033 187.382 17.0943C188.66 16.6852 190.098 16.4883 191.678 16.4883C193.258 16.4883 194.075 16.6701 195.033 17.0337C195.974 17.3973 196.737 17.8669 197.305 18.4578C197.873 19.0486 198.246 19.7152 198.406 20.4576C198.566 21.2 198.477 21.9575 198.175 22.7301C197.909 23.3967 197.483 23.8967 196.897 24.2148C196.311 24.5481 195.672 24.7905 194.98 24.9269C194.288 25.0784 193.595 25.1541 192.903 25.1541C192.211 25.1541 191.607 25.1844 191.092 25.1996C190.631 25.2147 190.223 25.2299 189.85 25.2147C189.477 25.2147 189.175 25.2147 188.909 25.2299C188.643 25.245 188.43 25.2905 188.288 25.3662C188.146 25.442 188.039 25.5632 188.004 25.7298C187.95 26.0783 188.199 26.3813 188.731 26.6085C189.264 26.8509 189.939 26.9721 190.737 26.9721C191.536 26.9721 192.051 26.9115 192.548 26.7903C193.045 26.6691 193.507 26.5328 193.933 26.3661C194.359 26.2146 194.767 26.0631 195.157 25.9268C195.548 25.7904 195.956 25.7298 196.4 25.7298H196.684C196.773 25.7298 196.879 25.7298 196.968 25.7601C197.607 25.8359 198.086 26.0328 198.406 26.3358C198.725 26.6388 198.938 26.9873 199.045 27.3812C199.134 27.7751 199.134 28.1993 199.045 28.6386C198.956 29.078 198.779 29.4871 198.53 29.8658C197.927 30.8051 196.933 31.5475 195.548 32.108C194.163 32.6686 192.459 32.9413 190.453 32.9413C187.347 32.9261 185.039 32.2141 183.513 30.8506C182.004 29.4719 181.24 27.5781 181.24 25.1541M190.418 22.7907C190.702 22.7907 191.039 22.7756 191.412 22.7453C191.785 22.715 192.14 22.6544 192.459 22.5483C192.779 22.4423 193.063 22.3059 193.294 22.109C193.524 21.9272 193.649 21.6696 193.649 21.3363C193.649 21.003 193.56 20.8061 193.4 20.6091C193.223 20.4122 193.01 20.2455 192.743 20.1243C192.477 20.0031 192.193 19.9122 191.873 19.8667C191.554 19.8213 191.252 19.791 190.968 19.791H190.826C189.956 19.791 189.246 19.9425 188.731 20.2455C188.217 20.5485 187.968 20.9273 187.986 21.4121C188.039 21.9575 188.27 22.3211 188.696 22.518C189.122 22.715 189.69 22.8059 190.418 22.8059" fill="#F9F4DF"/>
</svg>
