<svg width="96" height="97" viewBox="0 0 96 97" fill="none" xmlns="http://www.w3.org/2000/svg">
<path fill-rule="evenodd" clip-rule="evenodd" d="M89.3366 9.51883C89.3323 8.60034 88.7753 7.77111 87.9248 7.41819C87.0743 7.06525 86.0921 7.26086 85.4415 7.91145L42.4642 50.8975C41.5627 51.799 41.5627 53.2618 42.4642 54.1632C43.3657 55.0647 44.8285 55.0647 45.7299 54.1632L88.6822 11.1424C89.1075 10.7086 89.3408 10.1269 89.3366 9.51883Z" fill="#134635"/>
<path fill-rule="evenodd" clip-rule="evenodd" d="M67.5663 21.3446L82.101 6.79781L81.6205 0.59375L67.0781 15.1362C67.2312 17.207 67.3919 19.2312 67.5663 21.3446Z" fill="#134635"/>
<path fill-rule="evenodd" clip-rule="evenodd" d="M64.2997 20.8003C52.8054 13.1418 38.2542 11.7259 25.5015 17.0242C12.7487 22.3225 3.47941 33.6294 0.791695 47.1769C-1.8958 60.7199 2.35229 74.7104 12.1152 84.4783C21.8827 94.2416 35.8724 98.4895 49.4166 95.8018C62.964 93.1143 74.2711 83.8447 79.5693 71.092C84.8676 58.3392 83.4516 43.7881 75.7932 32.2937L72.3106 32.0344L62.3815 41.9634V41.9592C66.7954 48.9244 67.4758 57.6207 64.1973 65.1852C60.9188 72.7458 54.1109 78.1971 46.0103 79.7407C37.9139 81.2843 29.5792 78.7159 23.7498 72.886C17.9199 67.0603 15.3559 58.7213 16.8951 50.6255C18.4387 42.5292 23.8902 35.7174 31.4549 32.4429C39.0155 29.1644 47.7119 29.8405 54.6766 34.2544L64.6057 24.3253L64.2997 20.8003Z" fill="#BA643B"/>
<path fill-rule="evenodd" clip-rule="evenodd" d="M41.354 46.1181C41.792 46.1181 42.2342 46.1521 42.6679 46.2159L52.3801 36.5037V36.5079C46.2526 32.8765 38.7347 32.4726 32.25 35.4236C25.7696 38.3789 21.1432 44.3152 19.863 51.3224C18.5831 58.3301 20.8113 65.5208 25.829 70.5773C30.851 75.6332 38.0244 77.9125 45.0404 76.6793C52.0566 75.4504 58.0272 70.8665 61.0251 64.4034C64.0272 57.9441 63.6743 50.4216 60.0854 44.2689L50.3731 53.9811H50.3774C50.4412 54.4149 50.4752 54.8571 50.4752 55.2951C50.4794 58.9903 48.2555 62.3283 44.8409 63.7443C41.4263 65.1604 37.4972 64.3779 34.8821 61.767C32.2712 59.1519 31.4888 55.2228 32.9048 51.8082C34.3208 48.3937 37.6546 46.1697 41.3541 46.1739L41.354 46.1181Z" fill="#134635"/>
<path fill-rule="evenodd" clip-rule="evenodd" d="M75.249 29.0291L81.4531 29.4969L95.9998 14.9751L89.7958 14.4946L75.249 29.0291Z" fill="#134635"/>
</svg>
