<svg width="98" height="90" viewBox="0 0 98 90" fill="none" xmlns="http://www.w3.org/2000/svg">
<path d="M84.1829 15.881C81.7131 13.4094 78.7804 11.4486 75.5524 10.1108C72.3245 8.77304 68.8646 8.08447 65.3704 8.08447C61.8762 8.08447 58.4162 8.77304 55.1883 10.1108C51.9603 11.4486 49.0276 13.4094 46.5578 15.881L45.9818 16.4571L45.847 16.3223C40.5945 11.2308 33.5528 8.40531 26.2378 8.45407C20.156 8.384 14.2446 10.463 9.54547 14.3246C6.71199 16.6924 4.40241 19.6242 2.76366 22.9332C1.12492 26.2423 0.1929 29.8562 0.0269005 33.5451C-0.139099 37.234 0.464558 40.9171 1.79946 44.3599C3.13437 47.8028 5.17129 50.9301 7.78064 53.5429L12.6829 58.4452L41.6678 87.4055C42.8132 88.5283 44.3533 89.1572 45.9573 89.1572C47.5613 89.1572 49.1013 88.5283 50.2468 87.4055L79.3052 58.4452L84.2075 53.5429C86.6801 51.0692 88.6411 48.1324 89.9781 44.9004C91.3152 41.6684 92.0023 38.2046 92 34.7069C91.9977 31.2093 91.3062 27.7463 89.9649 24.5161C88.6236 21.2858 86.6588 18.3516 84.1829 15.881ZM63.4462 37.0712L43.2733 57.2197C42.863 57.6272 42.3218 57.8766 41.7454 57.9237C41.169 57.9708 40.5945 57.8126 40.1235 57.477L28.8237 49.425C28.541 49.2472 28.2975 49.0136 28.1083 48.7383C27.9191 48.463 27.7882 48.152 27.7236 47.8243C27.6589 47.4967 27.6619 47.1592 27.7324 46.8327C27.8028 46.5062 27.9393 46.1976 28.1333 45.9258C28.3274 45.6539 28.575 45.4246 28.8608 45.2519C29.1467 45.0792 29.4649 44.9667 29.7958 44.9214C30.1267 44.8761 30.4634 44.8989 30.7852 44.9884C31.107 45.0779 31.4071 45.2322 31.6671 45.4419L41.2756 52.3174L59.9778 33.6028C60.4378 33.1429 61.0616 32.8845 61.712 32.8845C62.3625 32.8845 62.9863 33.1429 63.4462 33.6028C63.9062 34.0628 64.1645 34.6866 64.1645 35.337C64.1645 35.9875 63.9062 36.6113 63.4462 37.0712Z" fill="#BA643B"/>
<path d="M27.8784 46.1852L41.3532 55.9428L87.8178 10.8721" stroke="#F6F1DE" stroke-width="20" stroke-linecap="round"/>
<path d="M27.8784 46.1852L41.3532 55.9428L87.8178 10.8721" stroke="#134635" stroke-width="10" stroke-linecap="round"/>
</svg>
