<svg width="90" height="90" viewBox="0 0 90 90" fill="none" xmlns="http://www.w3.org/2000/svg">
<path d="M31.1549 9.97548C24.9511 16.0915 21.2822 24.3274 20.8828 33.0308C20.4836 41.7377 23.3779 50.273 28.9949 56.9364L22.9148 62.9526L22.6913 62.7251C21.0425 61.0484 18.3478 61.0244 16.6711 62.6732L1.27362 77.8151C0.467202 78.6056 0.0120644 79.6875 0.000106984 80.8133C-0.00787689 81.9431 0.431269 83.033 1.22569 83.8354L5.35764 88.0352L5.35365 88.0391C6.14809 88.8416 7.22595 89.3007 8.35578 89.3087C9.4856 89.3207 10.5715 88.8815 11.3778 88.0871L26.7753 72.9492H26.7713C28.448 71.3004 28.472 68.6017 26.8232 66.925L26.6475 66.7454L32.7316 60.7292H32.7276C39.5344 66.6416 48.3806 69.6637 57.3834 69.1527C66.3858 68.6377 74.833 64.6295 80.9211 57.9781C87.0092 51.3311 90.2628 42.5643 89.9834 33.5503C89.7039 24.5399 85.9153 15.9923 79.4241 9.73254C72.9367 3.47278 64.2576 -0.0043717 55.2394 0.0394721C46.2251 0.0833865 37.5823 3.64776 31.1549 9.97548ZM75.939 55.5148C68.4816 62.8485 57.6789 65.647 47.5989 62.8565C37.5189 60.0659 29.6935 52.1091 27.0751 41.9852C24.4522 31.861 27.4304 21.1057 34.8878 13.7728C40.425 8.32751 47.8948 5.30535 55.6589 5.37321C63.4238 5.43708 70.8408 8.5829 76.287 14.1201C81.7323 19.6533 84.7504 27.1271 84.6866 34.8913C84.6228 42.6521 81.4762 50.0727 75.939 55.5148Z" fill="#BA643B"/>
<path d="M76.1352 29.9609C74.9854 29.9529 73.9674 29.2263 73.5881 28.1445C73.3765 27.5457 73.133 26.9628 72.8615 26.3959L72.8655 26.392C72.3625 25.358 72.5701 24.1243 73.3765 23.306C74.4304 22.2521 74.4304 20.5434 73.3765 19.4855L70.57 16.679C69.5161 15.6251 67.8074 15.6251 66.7535 16.6829C65.9351 17.4894 64.6975 17.693 63.6635 17.1939C63.0967 16.9265 62.5098 16.6829 61.915 16.4674C60.8331 16.0921 60.1026 15.0741 60.0986 13.9243C60.0986 13.2097 59.8152 12.5231 59.3081 12.016C58.8011 11.509 58.1144 11.2256 57.3959 11.2256H53.4277C51.9386 11.2256 50.729 12.4312 50.729 13.9243C50.725 15.074 49.9944 16.092 48.9126 16.4673C48.3137 16.6829 47.7309 16.9224 47.164 17.1939H47.16C46.1261 17.6929 44.8924 17.4893 44.0741 16.6829C43.0202 15.6249 41.3115 15.6249 40.2575 16.6789L37.451 19.4854C36.944 19.9924 36.6606 20.6791 36.6606 21.3977C36.6606 22.1123 36.944 22.799 37.451 23.306C38.2574 24.1204 38.465 25.358 37.962 26.3919C37.6945 26.9588 37.451 27.5456 37.2354 28.1405V28.1444C36.8602 29.2263 35.8421 29.9569 34.6924 29.9608C33.9778 29.9608 33.2911 30.2443 32.7841 30.7513C32.2771 31.2583 31.9937 31.945 31.9937 32.6596V36.6278C31.9937 37.3464 32.2771 38.0331 32.7841 38.5401C33.2911 39.0431 33.9778 39.3305 34.6924 39.3305C35.8421 39.3345 36.8602 40.0651 37.2354 41.1469C37.451 41.7458 37.6905 42.3286 37.962 42.8955C38.465 43.9294 38.2574 45.1671 37.451 45.9854C36.944 46.4924 36.6606 47.1791 36.6606 47.8937C36.6606 48.6083 36.944 49.2949 37.451 49.802L40.2575 52.6085C41.3114 53.6624 43.0201 53.6624 44.0741 52.6085C44.8925 51.802 46.1301 51.5944 47.164 52.0975C47.7309 52.3649 48.3138 52.6085 48.9125 52.8241V52.8201C49.9944 53.1993 50.725 54.2173 50.729 55.3631V55.3671C50.729 56.8561 51.9386 58.0658 53.4276 58.0658H57.3959C58.1145 58.0658 58.8011 57.7823 59.3081 57.2753C59.8151 56.7683 60.0986 56.0816 60.0986 55.3671V55.3631C60.1026 54.2173 60.8332 53.1993 61.915 52.82C62.5138 52.6044 63.0966 52.3649 63.6635 52.0934V52.0974C64.6975 51.5944 65.9351 51.802 66.7535 52.6084C67.2605 53.1154 67.9472 53.3989 68.6617 53.3989C69.3803 53.3989 70.067 53.1154 70.57 52.6084L73.3765 49.8019C74.4304 48.748 74.4304 47.0393 73.3765 45.9854C72.5701 45.167 72.3625 43.9294 72.8655 42.8954C73.133 42.3285 73.3765 41.7417 73.5921 41.1469H73.5881C73.9674 40.065 74.9854 39.3345 76.1352 39.3305C76.8498 39.3305 77.5364 39.0431 78.0434 38.54C78.5504 38.033 78.8339 37.3463 78.8339 36.6278V32.6595C78.8339 31.9449 78.5504 31.2583 78.0434 30.7513C77.5364 30.2443 76.8497 29.9609 76.1352 29.9609ZM55.4121 44.6838C51.352 44.6838 47.6952 42.2367 46.1423 38.488C44.5854 34.7353 45.4437 30.4198 48.318 27.5454C51.1884 24.675 55.5039 23.8167 59.2565 25.3697C63.0052 26.9266 65.4524 30.5835 65.4524 34.6435C65.4524 37.3063 64.3944 39.8613 62.5101 41.7416C60.6299 43.626 58.075 44.6838 55.4121 44.6838Z" fill="#134635"/>
</svg>
